<?xml version="1.0" encoding="UTF-8" standalone="no"?>
<!-- Created with Inkscape (http://www.inkscape.org/) -->

<svg
   xmlns:dc="http://purl.org/dc/elements/1.1/"
   xmlns:cc="http://creativecommons.org/ns#"
   xmlns:rdf="http://www.w3.org/1999/02/22-rdf-syntax-ns#"
   xmlns:svg="http://www.w3.org/2000/svg"
   xmlns="http://www.w3.org/2000/svg"
   xmlns:sodipodi="http://sodipodi.sourceforge.net/DTD/sodipodi-0.dtd"
   xmlns:inkscape="http://www.inkscape.org/namespaces/inkscape"
   width="210mm"
   height="297mm"
   viewBox="0 0 744.09448819 1052.3622047"
   id="svg2"
   version="1.1"
   inkscape:version="0.91 r13725"
   sodipodi:docname="bikers.svg">
  <defs
     id="defs4" />
  <sodipodi:namedview
     id="base"
     pagecolor="#ffffff"
     bordercolor="#666666"
     borderopacity="1.0"
     inkscape:pageopacity="0.0"
     inkscape:pageshadow="2"
     inkscape:zoom="1"
     inkscape:cx="364.85357"
     inkscape:cy="253.97639"
     inkscape:document-units="px"
     inkscape:current-layer="g4224"
     showgrid="false"
     inkscape:window-width="1600"
     inkscape:window-height="837"
     inkscape:window-x="-8"
     inkscape:window-y="-8"
     inkscape:window-maximized="1" />
  <metadata
     id="metadata7">
    <rdf:RDF>
      <cc:Work
         rdf:about="">
        <dc:format>image/svg+xml</dc:format>
        <dc:type
           rdf:resource="http://purl.org/dc/dcmitype/StillImage" />
        <dc:title></dc:title>
      </cc:Work>
    </rdf:RDF>
  </metadata>
  <g
     inkscape:label="Layer 1"
     inkscape:groupmode="layer"
     id="layer1">
    <g
       id="g4205">
      <g
         id="g4196">
        <circle
           style="opacity:1;fill:none;fill-opacity:1;stroke:#000000;stroke-width:15;stroke-linecap:round;stroke-linejoin:round;stroke-miterlimit:4;stroke-dasharray:none;stroke-dashoffset:0;stroke-opacity:1"
           id="path4168"
           cx="190.66631"
           cy="333.38611"
           r="28.031733" />
        <rect
           style="opacity:1;fill:#0e4356;fill-opacity:1;stroke:#000000;stroke-width:0;stroke-linecap:round;stroke-linejoin:round;stroke-miterlimit:4;stroke-dasharray:none;stroke-dashoffset:0;stroke-opacity:1"
           id="rect4166"
           width="12.280475"
           height="60.36401"
           x="-68.286201"
           y="321.241"
           rx="5.3464398"
           ry="3.78807"
           transform="matrix(0.77790629,-0.6283803,0.6283803,0.77790629,0,0)" />
        <rect
           transform="matrix(-0.5740176,-0.81884296,0.81884296,-0.5740176,0,0)"
           ry="3.78807"
           rx="5.3464398"
           y="-73.277176"
           x="-329.55612"
           height="59.684177"
           width="20.451145"
           id="rect4172"
           style="opacity:1;fill:#0e4356;fill-opacity:1;stroke:#000000;stroke-width:0;stroke-linecap:round;stroke-linejoin:round;stroke-miterlimit:4;stroke-dasharray:none;stroke-dashoffset:0;stroke-opacity:1" />
        <circle
           r="28.031733"
           cy="333.38611"
           cx="53.285561"
           id="circle4184"
           style="opacity:1;fill:none;fill-opacity:1;stroke:#000000;stroke-width:15;stroke-linecap:round;stroke-linejoin:round;stroke-miterlimit:4;stroke-dasharray:none;stroke-dashoffset:0;stroke-opacity:1" />
        <rect
           style="opacity:1;fill:#0e4356;fill-opacity:1;stroke:#000000;stroke-width:0;stroke-linecap:round;stroke-linejoin:round;stroke-miterlimit:4;stroke-dasharray:none;stroke-dashoffset:0;stroke-opacity:1"
           id="rect4178"
           width="23.507261"
           height="69.385979"
           x="-316.81445"
           y="48.193863"
           rx="5.3464398"
           ry="3.78807"
           transform="matrix(-0.05234756,-0.99862893,0.99862893,-0.05234756,0,0)" />
        <rect
           transform="matrix(-0.6932527,-0.72069459,-0.72069459,0.6932527,0,0)"
           ry="3.78807"
           rx="5.3464398"
           y="134.55081"
           x="-280.48517"
           height="60.36401"
           width="12.280475"
           id="rect4182"
           style="opacity:1;fill:#0e4356;fill-opacity:1;stroke:#000000;stroke-width:0;stroke-linecap:round;stroke-linejoin:round;stroke-miterlimit:4;stroke-dasharray:none;stroke-dashoffset:0;stroke-opacity:1" />
        <rect
           style="opacity:1;fill:#0e4356;fill-opacity:1;stroke:#000000;stroke-width:0;stroke-linecap:round;stroke-linejoin:round;stroke-miterlimit:4;stroke-dasharray:none;stroke-dashoffset:0;stroke-opacity:1"
           id="rect4180"
           width="27.842575"
           height="34.117268"
           x="-234.59985"
           y="185.84393"
           rx="5.3464398"
           ry="3.78807"
           transform="matrix(0.51255214,-0.8586561,0.8586561,0.51255214,0,0)" />
      </g>
      <g
         id="g4186">
        <rect
           style="opacity:1;fill:#1e3bbb;fill-opacity:1;stroke:#000000;stroke-width:0;stroke-linecap:round;stroke-linejoin:round;stroke-miterlimit:4;stroke-dasharray:none;stroke-dashoffset:0;stroke-opacity:1"
           id="rect4144"
           width="34.51033"
           height="77.694557"
           x="194.42596"
           y="139.51816"
           rx="10.397201"
           ry="32.115482"
           transform="matrix(0.88573409,0.46419297,-0.46419297,0.88573409,0,0)" />
        <rect
           style="opacity:1;fill:#0e5cf5;fill-opacity:1;stroke:#000000;stroke-width:0;stroke-linecap:round;stroke-linejoin:round;stroke-miterlimit:4;stroke-dasharray:none;stroke-dashoffset:0;stroke-opacity:1"
           id="rect4146"
           width="51.517776"
           height="12.626906"
           x="244.60654"
           y="98.034203"
           rx="5.346437"
           ry="3.7880719"
           transform="matrix(0.75017435,0.66124008,-0.66124008,0.75017435,0,0)" />
        <g
           id="g4174"
           transform="translate(-4.0406102,6.5659915)">
          <rect
             style="opacity:1;fill:#0e5cf5;fill-opacity:1;stroke:#000000;stroke-width:0;stroke-linecap:round;stroke-linejoin:round;stroke-miterlimit:4;stroke-dasharray:none;stroke-dashoffset:0;stroke-opacity:1"
             id="rect4148"
             width="47.064774"
             height="17.556757"
             x="283.13678"
             y="35.785759"
             rx="11.775773"
             ry="6.4419956"
             transform="matrix(0.46794434,0.88375794,-0.88375794,0.46794434,0,0)" />
          <rect
             transform="matrix(-0.82864178,0.55977924,-0.55977924,-0.82864178,0,0)"
             ry="3.603852"
             rx="11.775773"
             y="-326.16922"
             x="76.341202"
             height="14.083083"
             width="37.325474"
             id="rect4150"
             style="opacity:1;fill:#0e5cf5;fill-opacity:1;stroke:#000000;stroke-width:0;stroke-linecap:round;stroke-linejoin:round;stroke-miterlimit:4;stroke-dasharray:none;stroke-dashoffset:0;stroke-opacity:1" />
        </g>
        <g
           id="g4158">
          <ellipse
             ry="20.203053"
             rx="26.011429"
             cy="209.89497"
             cx="133.59267"
             id="path4140"
             style="opacity:1;fill:#e6ab78;fill-opacity:1;stroke:#000000;stroke-width:0;stroke-linecap:round;stroke-linejoin:round;stroke-miterlimit:4;stroke-dasharray:none;stroke-dashoffset:0;stroke-opacity:1" />
          <path
             transform="scale(1,-1)"
             d="m 162.85714,-205.9335 a 35,24.999998 0 0 1 -21.647,23.10907 35,24.999998 0 0 1 -38.16427,-5.47618 35,24.999998 0 0 1 -7.473452,-27.28756 35,24.999998 0 0 1 32.461822,-15.34501 l -0.1771,24.99968 z"
             sodipodi:end="4.7174489"
             sodipodi:start="0"
             sodipodi:ry="24.999998"
             sodipodi:rx="35"
             sodipodi:cy="-205.9335"
             sodipodi:cx="127.85714"
             sodipodi:type="arc"
             id="path4138"
             style="opacity:1;fill:#167aff;fill-opacity:1;stroke:#000000;stroke-width:0;stroke-linecap:round;stroke-linejoin:round;stroke-miterlimit:4;stroke-dasharray:none;stroke-dashoffset:0;stroke-opacity:1" />
        </g>
      </g>
    </g>
    <g
       id="g4224"
       transform="translate(248,0)">
      <rect
         style="opacity:1;fill:#bb640d;fill-opacity:1;stroke:#982b00;stroke-width:2;stroke-linecap:round;stroke-linejoin:miter;stroke-miterlimit:4;stroke-dasharray:none;stroke-dashoffset:0;stroke-opacity:1"
         id="rect4303"
         width="210"
         height="67.857162"
         x="-235"
         y="484.07651"
         rx="0"
         ry="0" />
      <circle
         style="opacity:1;fill:none;fill-opacity:1;stroke:#000000;stroke-width:15;stroke-linecap:round;stroke-linejoin:round;stroke-miterlimit:4;stroke-dasharray:none;stroke-dashoffset:0;stroke-opacity:1"
         id="circle4228"
         cx="190.66631"
         cy="333.38611"
         r="28.031733" />
      <circle
         r="28.031733"
         cy="333.38611"
         cx="53.285561"
         id="circle4234"
         style="opacity:1;fill:none;fill-opacity:1;stroke:#000000;stroke-width:15;stroke-linecap:round;stroke-linejoin:round;stroke-miterlimit:4;stroke-dasharray:none;stroke-dashoffset:0;stroke-opacity:1" />
      <path
         style="opacity:1;fill:#a50a1e;fill-opacity:1;stroke:#000000;stroke-width:2;stroke-linecap:round;stroke-linejoin:round;stroke-miterlimit:4;stroke-dasharray:none;stroke-dashoffset:0;stroke-opacity:1"
         d="M 412.64844 262.58008 C 412.1222 262.61945 411.62882 262.78478 411.19922 263.08594 L 377.1543 286.95117 C 377.09943 286.95076 377.04552 286.94632 376.99023 286.94922 L 338.65039 288.95703 C 337.01434 288.16257 335.30161 288.18149 334.24414 289.18945 L 328.70898 289.47852 C 328.45705 289.00287 328.10329 288.60783 327.64453 288.33398 L 304.85547 274.73047 C 303.0535 273.65483 300.37947 274.83563 298.86133 277.37891 L 290.07227 292.10547 C 288.55412 294.64875 288.78202 297.56108 290.58398 298.63672 L 311.46289 311.09961 L 296.18945 325.79297 C 294.67701 327.24782 295.11265 330.13684 297.16602 332.27148 L 298.26758 333.41602 C 300.32094 335.55066 303.19068 336.09743 304.70312 334.64258 L 327.0957 313.10352 L 378.2207 310.42383 C 378.54565 310.40679 378.85551 310.32665 379.15039 310.20312 C 379.55303 310.12986 379.93114 309.9794 380.26953 309.74219 L 399.52148 296.24805 L 432.29297 336.81641 C 433.61168 338.44891 436.52793 338.26356 438.83203 336.40234 L 440.06641 335.40625 C 442.37051 333.54503 443.16442 330.73212 441.8457 329.09961 L 409.59961 289.18164 L 422.93945 279.83203 C 424.65787 278.6274 424.6709 275.70465 422.9707 273.2793 L 417.36914 265.28906 C 416.09399 263.47005 414.22714 262.46196 412.64844 262.58008 z "
         transform="translate(-248,0)"
         id="rect4230" />
      <path
         style="fill:#ffffff;fill-opacity:1;fill-rule:evenodd;stroke:#000000;stroke-width:2;stroke-linecap:butt;stroke-linejoin:miter;stroke-miterlimit:4;stroke-dasharray:none;stroke-opacity:1"
         d="m 85.57143,278.79078 c 0,0 -18.57143,2.85714 -15.71429,-27.85715 2.85715,-30.71428 -30,-37.85714 -28.57143,-31.42857 1.42858,6.42857 20,8.57143 20,22.14286 0,13.57143 -0.714281,42.85714 20.714289,44.99999 21.428571,2.14286 3.571431,-7.85713 3.571431,-7.85713 z"
         id="path4285"
         inkscape:connector-curvature="0"
         sodipodi:nodetypes="cssssc" />
      <rect
         style="opacity:1;fill:#ffffff;fill-opacity:1;stroke:#000000;stroke-width:2;stroke-linecap:round;stroke-linejoin:round;stroke-miterlimit:4;stroke-dasharray:none;stroke-dashoffset:0;stroke-opacity:1"
         id="rect4244"
         width="40.638691"
         height="67.208168"
         x="197.51694"
         y="147.59224"
         rx="10.397201"
         ry="32.115482"
         transform="matrix(0.88573409,0.46419297,-0.46419297,0.88573409,0,0)" />
      <rect
         style="opacity:1;fill:#ffffff;fill-opacity:1;stroke:#000000;stroke-width:2;stroke-linecap:round;stroke-linejoin:round;stroke-miterlimit:4;stroke-dasharray:none;stroke-dashoffset:0;stroke-opacity:1"
         id="rect4246"
         width="51.517776"
         height="12.626906"
         x="227.42725"
         y="141.49817"
         rx="5.346437"
         ry="3.7880719"
         transform="matrix(0.84382723,0.53661496,-0.53661496,0.84382723,0,0)" />
      <path
         style="opacity:1;fill:#ffffff;fill-opacity:1;stroke:#000000;stroke-width:2;stroke-linecap:round;stroke-linejoin:round;stroke-miterlimit:4;stroke-dasharray:none;stroke-dashoffset:0;stroke-opacity:1"
         d="M 348.90625 271.94336 C 347.93272 271.95856 347.06532 272.22959 346.36719 272.78516 L 342.71094 275.69531 C 339.9184 277.91759 340.9397 283.81524 345.00195 288.91992 L 359.64258 307.31836 C 360.85775 308.84536 362.20452 310.11601 363.56836 311.09766 C 363.28988 311.79811 363.02252 312.52736 362.77344 313.28516 L 358.47266 326.37109 C 356.43558 332.56867 356.32205 338.06017 358.21875 338.68359 L 364.75 340.83008 C 366.6467 341.4535 369.81448 336.96711 371.85156 330.76953 L 376.15234 317.68359 C 377.82752 312.58706 378.19936 307.97348 377.22461 306.14648 C 377.37845 303.38133 376.03198 299.71815 373.38086 296.38672 L 358.74023 277.98828 C 355.69354 274.15977 351.82684 271.89776 348.90625 271.94336 z "
         transform="translate(-248,0)"
         id="rect4250" />
      <ellipse
         style="opacity:1;fill:#ffffff;fill-opacity:1;stroke:#000000;stroke-width:2;stroke-linecap:round;stroke-linejoin:round;stroke-miterlimit:4;stroke-dasharray:none;stroke-dashoffset:0;stroke-opacity:1"
         id="ellipse4256"
         cx="134.60281"
         cy="217.47112"
         rx="23.154285"
         ry="21.631624" />
      <path
         style="opacity:1;fill:#cf0b0b;fill-opacity:1;stroke:#000000;stroke-width:2;stroke-linecap:round;stroke-linejoin:round;stroke-miterlimit:4;stroke-dasharray:none;stroke-dashoffset:0;stroke-opacity:1"
         id="path4258"
         sodipodi:type="arc"
         sodipodi:cx="133.15302"
         sodipodi:cy="-212.79536"
         sodipodi:rx="30.714285"
         sodipodi:ry="25.714283"
         sodipodi:start="0"
         sodipodi:end="3.5604163"
         d="m 163.8673,-212.79536 a 30.714285,25.714283 0 0 1 -19.20799,23.84169 30.714285,25.714283 0 0 1 -33.59951,-5.97837 30.714285,25.714283 0 0 1 -5.96637,-28.32096 l 28.05959,10.45764 z"
         transform="scale(1,-1)" />
      <rect
         ry="0"
         rx="0"
         y="484.07651"
         x="5"
         height="67.857162"
         width="210"
         id="rect4305"
         style="opacity:1;fill:#1e1e1e;fill-opacity:1;stroke:#020000;stroke-width:2;stroke-linecap:round;stroke-linejoin:miter;stroke-miterlimit:4;stroke-dasharray:none;stroke-dashoffset:0;stroke-opacity:1" />
      <g
         id="g4319"
         style="stroke-linejoin:miter">
        <rect
           style="opacity:1;fill:#a3430d;fill-opacity:1;stroke:#7a2b00;stroke-width:2;stroke-linecap:round;stroke-linejoin:miter;stroke-miterlimit:4;stroke-dasharray:none;stroke-dashoffset:0;stroke-opacity:1"
           id="rect4307"
           width="210"
           height="67.857162"
           x="-235"
           y="564.07654"
           rx="0"
           ry="0" />
        <path
           sodipodi:nodetypes="cccc"
           inkscape:connector-curvature="0"
           id="path4309"
           d="m -214.42857,588.07649 c 0,0 21.28571,-15 51.28571,-15 34.29315,0 42.99009,14.28571 68.71429,14.28571 30.714286,0 50.71428,-10.71428 50.71428,-10.71428"
           style="fill:none;fill-rule:evenodd;stroke:#720000;stroke-width:2;stroke-linecap:butt;stroke-linejoin:miter;stroke-opacity:1;stroke-miterlimit:4;stroke-dasharray:none" />
        <path
           style="fill:none;fill-rule:evenodd;stroke:#720000;stroke-width:2;stroke-linecap:butt;stroke-linejoin:miter;stroke-miterlimit:4;stroke-dasharray:none;stroke-opacity:1"
           d="m -214.42857,606.07649 c 0,0 21.28571,-15 51.28571,-15 34.29315,0 42.99009,14.28571 68.71429,14.28571 30.714286,0 50.71428,-10.71428 50.71428,-10.71428"
           id="path4311"
           inkscape:connector-curvature="0"
           sodipodi:nodetypes="cccc" />
        <path
           sodipodi:nodetypes="cccc"
           inkscape:connector-curvature="0"
           id="path4313"
           d="m -214.42857,624.07649 c 0,0 21.28571,-15 51.28571,-15 34.29315,0 42.99009,14.28571 68.71429,14.28571 30.714286,0 50.71428,-10.71428 50.71428,-10.71428"
           style="fill:none;fill-rule:evenodd;stroke:#720000;stroke-width:2;stroke-linecap:butt;stroke-linejoin:miter;stroke-miterlimit:4;stroke-dasharray:none;stroke-opacity:1" />
      </g>
      <rect
         style="opacity:1;fill:#a0a0a0;fill-opacity:1;stroke:#505050;stroke-width:2;stroke-linecap:round;stroke-linejoin:miter;stroke-miterlimit:4;stroke-dasharray:none;stroke-dashoffset:0;stroke-opacity:1"
         id="rect4317"
         width="210"
         height="67.857162"
         x="5"
         y="564.07654"
         rx="0"
         ry="0" />
      <rect
         style="opacity:1;fill:#4eb30d;fill-opacity:1;stroke:#169000;stroke-width:2;stroke-linecap:round;stroke-linejoin:miter;stroke-miterlimit:4;stroke-dasharray:none;stroke-dashoffset:0;stroke-opacity:1"
         id="rect4327"
         width="210"
         height="67.857162"
         x="-235"
         y="644.07654"
         rx="0"
         ry="0" />
      <path
         sodipodi:nodetypes="cccc"
         inkscape:connector-curvature="0"
         id="path4329"
         d="m -214.42857,668.07649 c 0,0 21.28571,-15 51.28571,-15 34.29315,0 42.99009,14.28571 68.71429,14.28571 30.714286,0 50.71428,-10.71428 50.71428,-10.71428"
         style="fill:none;fill-rule:evenodd;stroke:#107d00;stroke-width:2;stroke-linecap:butt;stroke-linejoin:miter;stroke-miterlimit:4;stroke-dasharray:none;stroke-opacity:1" />
      <path
         style="fill:none;fill-rule:evenodd;stroke:#107d00;stroke-width:2;stroke-linecap:butt;stroke-linejoin:miter;stroke-miterlimit:4;stroke-dasharray:none;stroke-opacity:1"
         d="m -214.42857,686.07649 c 0,0 21.28571,-15 51.28571,-15 34.29315,0 42.99009,14.28571 68.71429,14.28571 30.714286,0 50.71428,-10.71428 50.71428,-10.71428"
         id="path4331"
         inkscape:connector-curvature="0"
         sodipodi:nodetypes="cccc" />
      <path
         sodipodi:nodetypes="cccc"
         inkscape:connector-curvature="0"
         id="path4333"
         d="m -214.42857,704.07649 c 0,0 21.28571,-15 51.28571,-15 34.29315,0 42.99009,14.28571 68.71429,14.28571 30.714286,0 50.71428,-10.71428 50.71428,-10.71428"
         style="fill:none;fill-rule:evenodd;stroke:#107d00;stroke-width:2;stroke-linecap:butt;stroke-linejoin:miter;stroke-miterlimit:4;stroke-dasharray:none;stroke-opacity:1" />
      <path
         style="fill:#ff9500;fill-rule:evenodd;stroke:none;stroke-width:2;stroke-linecap:butt;stroke-linejoin:miter;stroke-opacity:1;stroke-miterlimit:4;stroke-dasharray:none;fill-opacity:1"
         d="m 337.57015,511.02773 12.42729,0 18.4273,71.80434 -49.28188,0 z"
         id="path4339"
         inkscape:connector-curvature="0"
         sodipodi:nodetypes="ccccc" />
      <path
         style="opacity:1;fill:#ffffff;fill-opacity:1;stroke:none;stroke-width:2;stroke-linecap:round;stroke-linejoin:round;stroke-miterlimit:4;stroke-dasharray:none;stroke-dashoffset:0;stroke-opacity:1"
         d="m 328.76648,544.34478 29.26377,0 3.30357,12.15881 -34.67694,0 z"
         id="rect4341"
         inkscape:connector-curvature="0"
         sodipodi:nodetypes="ccccc" />
      <path
         sodipodi:nodetypes="ccccc"
         inkscape:connector-curvature="0"
         id="path4344"
         d="m 337.57015,511.02773 12.42729,0 18.4273,71.80434 -49.28188,0 z"
         style="fill:none;fill-rule:evenodd;stroke:#000000;stroke-width:2;stroke-linecap:butt;stroke-linejoin:miter;stroke-opacity:1;stroke-miterlimit:4;stroke-dasharray:none;fill-opacity:1" />
      <rect
         style="opacity:1;fill:#ff9500;fill-opacity:1;stroke:#000000;stroke-width:2;stroke-linecap:round;stroke-linejoin:round;stroke-miterlimit:4;stroke-dasharray:none;stroke-dashoffset:0;stroke-opacity:1"
         id="rect4346"
         width="73.406128"
         height="12.995694"
         x="307.08075"
         y="580.02515" />
      <rect
         ry="0"
         rx="0"
         y="764.07654"
         x="-75"
         height="67.857162"
         width="210"
         id="rect4348"
         style="opacity:1;fill:#a0a0a0;fill-opacity:1;stroke:#505050;stroke-width:2;stroke-linecap:round;stroke-linejoin:miter;stroke-miterlimit:4;stroke-dasharray:none;stroke-dashoffset:0;stroke-opacity:1" />
      <rect
         style="opacity:1;fill:#a0a0a0;fill-opacity:1;stroke:#505050;stroke-width:2;stroke-linecap:round;stroke-linejoin:miter;stroke-miterlimit:4;stroke-dasharray:none;stroke-dashoffset:0;stroke-opacity:1"
         id="rect4350"
         width="210"
         height="67.857162"
         x="-75"
         y="833.93372"
         rx="0"
         ry="0" />
      <rect
         ry="0"
         rx="0"
         y="903.79089"
         x="-75"
         height="67.857162"
         width="210"
         id="rect4352"
         style="opacity:1;fill:#a0a0a0;fill-opacity:1;stroke:#505050;stroke-width:2;stroke-linecap:round;stroke-linejoin:miter;stroke-miterlimit:4;stroke-dasharray:none;stroke-dashoffset:0;stroke-opacity:1" />
      <rect
         style="opacity:1;fill:#a0a0a0;fill-opacity:1;stroke:#505050;stroke-width:2;stroke-linecap:round;stroke-linejoin:miter;stroke-miterlimit:4;stroke-dasharray:none;stroke-dashoffset:0;stroke-opacity:1"
         id="rect4354"
         width="210"
         height="67.857162"
         x="-75"
         y="973.64807"
         rx="0"
         ry="0" />
      <path
         style="opacity:1;fill:#a0a0a0;fill-opacity:1;stroke:#505050;stroke-width:2;stroke-linecap:round;stroke-linejoin:miter;stroke-miterlimit:4;stroke-dasharray:none;stroke-dashoffset:0;stroke-opacity:1"
         d="m 137,764.07654 210,-70 0,67.85716 -210,70 z"
         id="rect4356"
         inkscape:connector-curvature="0"
         sodipodi:nodetypes="ccccc" />
      <path
         style="opacity:1;fill:#a0a0a0;fill-opacity:1;stroke:#505050;stroke-width:2;stroke-linecap:round;stroke-linejoin:miter;stroke-miterlimit:4;stroke-dasharray:none;stroke-dashoffset:0;stroke-opacity:1"
         d="m 137,833.93372 210,-70 0,67.85716 -210,70 z"
         id="rect4358"
         inkscape:connector-curvature="0"
         sodipodi:nodetypes="ccccc" />
      <path
         style="opacity:1;fill:#a0a0a0;fill-opacity:1;stroke:#505050;stroke-width:2;stroke-linecap:round;stroke-linejoin:miter;stroke-miterlimit:4;stroke-dasharray:none;stroke-dashoffset:0;stroke-opacity:1"
         d="m 137,903.79089 210,-70 0,67.85717 -210,70 z"
         id="rect4360"
         inkscape:connector-curvature="0"
         sodipodi:nodetypes="ccccc" />
      <path
         style="opacity:1;fill:#a0a0a0;fill-opacity:1;stroke:#505050;stroke-width:2;stroke-linecap:round;stroke-linejoin:miter;stroke-miterlimit:4;stroke-dasharray:none;stroke-dashoffset:0;stroke-opacity:1"
         d="m 137,973.64807 210,-70 0,67.85713 -210,70 z"
         id="rect4362"
         inkscape:connector-curvature="0"
         sodipodi:nodetypes="ccccc" />
    </g>
  </g>
</svg>
